# xmcd
#
# Track frame offsets:
#	150
#	12392
#	22227
#	34493
#	45272
#	55371
#	65375
#	80436
#	88836
#	100486
#	111600
#	120488
#	132079
#	140240
#	152844
#	160409
#	171334
#	182155
#	191925
#	203275
#
# Disc length: 2867 seconds
#
# Revision: 1
# Processed by: cddbd v1.5.2PL0 Copyright (c) Steve Scherf et al.
# Submitted via: audiograbber 1.83.01
#
DISCID=270b3114
DTITLE=Johnny Cash - Stimmen der Welt CD 10
DYEAR=2010
DGENRE=Country
TTITLE0=I Walk The  Line
TTITLE1=Ballad Of A Teen-Age ...
TTITLE2=Next In Line
TTITLE3=Train Of Love
TTITLE4=The Ways Of A Waman ...
TTITLE5=Get Rhythm
TTITLE6=Rockailly Blues
TTITLE7=Country Boy
TTITLE8=Doin My Time
TTITLE9=Don`t Make Me Go
TTITLE10=Remember Me
TTITLE11=So Doggone Lonesome
TTITLE12=Guess Things Happen
TTITLE13=Folsom Prison Blues
TTITLE14=Come In Stranger
TTITLE15=Cry, Cry, Cry
TTITLE16=I Heard That Lonesome ...
TTITLE17=The Rock Island Line
TTITLE18=Big River
TTITLE19=Give My Love To Rose
EXTD=
EXTT0=
EXTT1=
EXTT2=
EXTT3=
EXTT4=
EXTT5=
EXTT6=
EXTT7=
EXTT8=
EXTT9=
EXTT10=
EXTT11=
EXTT12=
EXTT13=
EXTT14=
EXTT15=
EXTT16=
EXTT17=
EXTT18=
EXTT19=
PLAYORDER=
